<?xml version="1.0" encoding="utf-8"?>
<!-- Generator: Adobe Illustrator 16.0.0, SVG Export Plug-In . SVG Version: 6.00 Build 0)  -->
<!DOCTYPE svg PUBLIC "-//W3C//DTD SVG 1.1//EN" "http://www.w3.org/Graphics/SVG/1.1/DTD/svg11.dtd">
<svg version="1.1" id="Layer_1" xmlns="http://www.w3.org/2000/svg" xmlns:xlink="http://www.w3.org/1999/xlink" x="0px" y="0px"
	 width="869.956px" height="992.949px" viewBox="-31.888 -26.883 869.956 992.949"
	 enable-background="new -31.888 -26.883 869.956 992.949" xml:space="preserve">
<rect id="Rectangle_2_" x="210.5" y="62.75" fill="none" stroke="#FF3600" stroke-width="3" width="37" height="117"/>
<rect id="Rectangle_3_" x="749.5" y="499.5" fill="none" stroke="#FF3600" stroke-width="3" width="37" height="117"/>
<rect id="Rectangle_4_" x="67.5" y="73.5" fill="none" stroke="#FF3600" stroke-width="3" width="37" height="117"/>
<rect id="Rectangle_5_" x="3.5" y="132.5" fill="none" stroke="#FF3600" stroke-width="3" width="64" height="58"/>
<rect id="Rectangle_6_" x="3.5" y="73.5" fill="none" stroke="#FF3600" stroke-width="3" width="64" height="59"/>
<rect id="Rectangle_7_" x="104.5" y="14.5" fill="none" stroke="#FF3600" stroke-width="3" width="117" height="37"/>
<rect id="Rectangle_8_" x="47.5" y="471.5" fill="none" stroke="#FF3600" stroke-width="3" width="62" height="151"/>
<rect id="Rectangle_9_" x="168.5" y="471.5" fill="none" stroke="#FF3600" stroke-width="3" width="62" height="151"/>
<rect id="Rectangle_10_" x="560.5" y="449.5" fill="none" stroke="#FF3600" stroke-width="3" width="62" height="151"/>
<rect id="Rectangle_11_" x="548.5" y="683.5" fill="none" stroke="#FF3600" stroke-width="3" width="151" height="62"/>
<rect id="Rectangle_12_" x="548.5" y="745.5" fill="none" stroke="#FF3600" stroke-width="3" width="151" height="62"/>
<rect id="Rectangle_13_" x="336.5" y="581.5" fill="none" stroke="#FF3600" stroke-width="3" width="151" height="62"/>
<rect id="Rectangle_14_" x="336.5" y="643.5" fill="none" stroke="#FF3600" stroke-width="3" width="151" height="62"/>
<rect id="Rectangle_15_" x="388.5" y="405.5" fill="none" stroke="#FF3600" stroke-width="3" width="49" height="120"/>
<rect id="Rectangle_16_" x="266.5" y="757.5" transform="matrix(-0.9947 -0.1029 0.1029 -0.9947 496.3371 1660.6038)" fill="none" stroke="#FF3600" stroke-width="3" width="49" height="119.999"/>
<rect id="Rectangle_17_" x="418.87" y="771.021" transform="matrix(-0.9947 -0.1029 0.1029 -0.9947 798.8773 1703.2524)" fill="none" stroke="#FF3600" stroke-width="3" width="49" height="120"/>
<rect id="Rectangle_18_" x="370.13" y="765.979" transform="matrix(-0.9947 -0.1029 0.1029 -0.9947 702.1738 1688.1804)" fill="none" stroke="#FF3600" stroke-width="3" width="49" height="120"/>
<rect id="Rectangle_19_" x="622.5" y="449.5" fill="none" stroke="#FF3600" stroke-width="3" width="62" height="151"/>
<rect id="Rectangle_20_" x="49.5" y="675.5" fill="none" stroke="#FF3600" stroke-width="3" width="151" height="62"/>
<path id="Line" fill="none" stroke="#FF3600" stroke-width="3" d="M3.11,1l1.243,863.094"/>
<path id="Line_1_" fill="none" stroke="#FF3600" stroke-width="3" d="M799.5,405.083v524.687"/>
<path id="Line_2_" fill="none" stroke="#FF3600" stroke-width="3" d="M257.5,1v404.5"/>
<path id="Line_3_" fill="none" stroke="#FF3600" stroke-width="3" d="M799.5,929.281L4.354,863.557"/>
<path id="Line-2" fill="none" stroke="#FF3600" stroke-width="3" d="M3,1.5h254"/>
<path id="Line-2_1_" fill="none" stroke="#FF3600" stroke-width="3" d="M3,254.5h254"/>
<path id="Line-2_2_" fill="none" stroke="#FF3600" stroke-width="3" d="M4,405.5h796"/>
<rect id="Rectangle" x="255" y="183.5" fill="none" stroke="#FF3600" stroke-width="3" width="5" height="68"/>
<rect id="Rectangle_1_" x="292.5" y="402.5" fill="none" stroke="#FF3600" stroke-width="3" width="81" height="6"/>
<path id="Rectangle_22_" fill="none" stroke="#FF3600" stroke-width="3" d="M412.604,778.577l-22.878-2.367l-4.013,38.793
	l22.878,2.367L412.604,778.577z"/>
<path id="Rectangle_23_" fill="none" stroke="#FF3600" stroke-width="3" d="M780,569.5h-23v39h23V569.5z"/>
<path id="Rectangle_25_" fill="none" stroke="#FF3600" stroke-width="3" d="M15.732,836.153l-1.327,22.962l81.863,4.731
	l1.327-22.962L15.732,836.153z"/>
<rect id="Rectangle_26_" x="16" y="146.5" fill="none" stroke="#FF3600" stroke-width="3" width="40" height="15.5"/>
<rect id="Rectangle_34_" x="69" y="508" fill="none" stroke="#FF3600" stroke-width="3" width="28" height="98"/>
<rect id="Rectangle_35_" x="368" y="600.5" fill="none" stroke="#FF3600" stroke-width="3" width="66.666" height="18"/>
<path id="Rectangle_36_" fill="none" stroke="#FF3600" stroke-width="3" d="M406.635,836.269l-22.878-2.366l-4.013,38.793
	l22.878,2.366L406.635,836.269z"/>
<path id="Rectangle_37_" fill="none" stroke="#FF3600" stroke-width="3" d="M461.24,784.613l-22.878-2.366l-4.013,38.793
	l22.878,2.366L461.24,784.613z"/>
<path id="Rectangle_39_" fill="none" stroke="#FF3600" stroke-width="3" d="M455.375,841.311l-22.878-2.366l-4.013,38.793
	l22.877,2.366L455.375,841.311z"/>
<path id="Rectangle_40_" fill="none" stroke="#FF3600" stroke-width="3" d="M549.936,877l-1.757,22.933l38.886,2.979l1.757-22.933
	L549.936,877z"/>
<path id="Rectangle_43_" fill="none" stroke="#FF3600" stroke-width="3" d="M571,705.5v18h18v-18H571z"/>
<path id="Rectangle_44_" fill="none" stroke="#FF3600" stroke-width="3" d="M579,479.5v18h18v-18H579z"/>
<path id="Rectangle_45_" fill="none" stroke="#FF3600" stroke-width="3" d="M658,768.5v18h18v-18H658z"/>
<path id="Rectangle_46_" fill="none" stroke="#FF3600" stroke-width="3" d="M640,479.5v18h18v-18H640z"/>
<rect id="Rectangle_47_" x="4.568" y="405.5" fill="none" stroke="#FF3600" stroke-width="3" width="16.432" height="268"/>
<path id="Rectangle_21_" fill="none" stroke="#FF3600" stroke-width="3" d="M606.436,882.463l-1.757,22.933l38.886,2.979
	l1.757-22.933L606.436,882.463z"/>
<path id="Rectangle_38_" fill="none" stroke="#FF3600" stroke-width="3" d="M663.757,886.956L662,909.889l38.886,2.979l1.757-22.933
	L663.757,886.956z"/>
<path id="Rectangle_33_" fill="none" stroke="#FF3600" stroke-width="3" d="M111.012,842.151l-1.627,22.943l81.794,5.801
	l1.627-22.942L111.012,842.151z"/>
<rect id="Rectangle_27_" x="16" y="95.75" fill="none" stroke="#FF3600" stroke-width="3" width="40" height="15.5"/>
<rect id="Rectangle_31_" x="77.75" y="85.25" fill="none" stroke="#FF3600" stroke-width="3" width="15.5" height="40"/>
<rect id="Rectangle_32_" x="77.75" y="137" fill="none" stroke="#FF3600" stroke-width="3" width="15.5" height="40"/>
<rect id="Rectangle_24_" x="117" y="25.25" fill="none" stroke="#FF3600" stroke-width="3" width="40" height="15.5"/>
<rect id="Rectangle_28_" x="170.5" y="25.25" fill="none" stroke="#FF3600" stroke-width="3" width="40" height="15.5"/>
<rect id="Rectangle_30_" x="221.25" y="75.375" fill="none" stroke="#FF3600" stroke-width="3" width="15.5" height="40"/>
<rect id="Rectangle_29_" x="221.25" y="127.125" fill="none" stroke="#FF3600" stroke-width="3" width="15.5" height="40"/>
<rect id="Rectangle_41_" x="3" y="1.5" fill="none" stroke="#EE3E23" stroke-width="3" width="92.494" height="29.25"/>
<rect id="Rectangle_42_" x="93.25" y="244.5" fill="none" stroke="#EE3E23" stroke-width="3" width="99.439" height="10"/>
</svg>
