<?xml version="1.0" encoding="utf-8"?>
<!-- Generator: Adobe Illustrator 16.0.0, SVG Export Plug-In . SVG Version: 6.00 Build 0)  -->
<!DOCTYPE svg PUBLIC "-//W3C//DTD SVG 1.1//EN" "http://www.w3.org/Graphics/SVG/1.1/DTD/svg11.dtd">
<svg version="1.1" id="Layer_1" xmlns="http://www.w3.org/2000/svg" xmlns:xlink="http://www.w3.org/1999/xlink" x="0px" y="0px"
	 width="801px" height="931px" viewBox="0 0 801 931" enable-background="new 0 0 801 931" xml:space="preserve">
<g id="Page-1">
	<g id="Space-Copy" transform="translate(-682.000000, -70.000000)">
		<g id="Floorplan" transform="translate(682.000000, 70.000000)">
			<path id="Line" fill="none" stroke="#FF3600" stroke-width="2" stroke-linecap="square" d="M1.483,1.534l0.742,863.731"/>
			<path id="Line_1_" fill="none" stroke="#FF3600" stroke-width="2" stroke-linecap="square" d="M799.259,406.126v523.417"/>
			<path id="Line_2_" fill="none" stroke="#FF3600" stroke-width="2" stroke-linecap="square" d="M257.355,1.526V404.45"/>
			<path id="Line_3_" fill="none" stroke="#FF3600" stroke-width="2" stroke-linecap="square" d="M799.256,929.543L2.761,863.981"/>
			<path id="Line-2" fill="none" stroke="#FF3600" stroke-width="2" stroke-linecap="square" d="M3.748,1.483h253.607"/>
			<path id="Line-2_1_" fill="none" stroke="#FF3600" stroke-width="2" stroke-linecap="square" d="M3.748,254.388h253.471"/>
			<path id="Line-2_2_" fill="none" stroke="#FF3600" stroke-width="2" stroke-linecap="square" d="M3.75,405.686h795.504"/>
			<rect id="Rectangle" x="256.63" y="183.453" fill="none" stroke="#FF3600" stroke-width="3" width="4.911" height="68.199"/>
			<rect id="Rectangle_1_" x="292.229" y="402.983" fill="none" stroke="#FF3600" stroke-width="3" width="81.054" height="5.899"/>
		</g>
		<g id="Tables" transform="translate(683.000000, 70.000000)">
			<rect id="Rectangle_2_" x="210" y="70" fill="none" stroke="#FF3600" stroke-width="2" width="37" height="117"/>
			<rect id="Rectangle_3_" x="749" y="499" fill="none" stroke="#FF3600" stroke-width="2" width="37" height="117"/>
			<rect id="Rectangle_4_" x="65" y="73" fill="none" stroke="#FF3600" stroke-width="2" width="37" height="117"/>
			<rect id="Rectangle_5_" x="1" y="132" fill="none" stroke="#FF3600" stroke-width="2" width="64" height="58"/>
			<rect id="Rectangle_6_" x="1" y="73" fill="none" stroke="#FF3600" stroke-width="2" width="64" height="59"/>
			<rect id="Rectangle_7_" x="104" y="14" fill="none" stroke="#FF3600" stroke-width="2" width="117" height="37"/>
			<rect id="Rectangle_8_" x="47" y="471" fill="none" stroke="#FF3600" stroke-width="2" width="62" height="151"/>
			<rect id="Rectangle_9_" x="168" y="471" fill="none" stroke="#FF3600" stroke-width="2" width="62" height="151"/>
			<rect id="Rectangle_10_" x="560" y="449" fill="none" stroke="#FF3600" stroke-width="2" width="62" height="151"/>
			<rect id="Rectangle_11_" x="548" y="683" fill="none" stroke="#FF3600" stroke-width="2" width="151" height="62"/>
			<rect id="Rectangle_12_" x="548" y="745" fill="none" stroke="#FF3600" stroke-width="2" width="151" height="62"/>
			<rect id="Rectangle_13_" x="336" y="581" fill="none" stroke="#FF3600" stroke-width="2" width="151" height="62"/>
			<rect id="Rectangle_14_" x="336" y="643" fill="none" stroke="#FF3600" stroke-width="2" width="151" height="62"/>
			<rect id="Rectangle_15_" x="375" y="407" fill="none" stroke="#FF3600" stroke-width="2" width="49" height="120"/>
			<rect id="Rectangle_16_" x="266" y="761" fill="none" stroke="#FF3600" stroke-width="2" width="49" height="120"/>
			<rect id="Rectangle_17_" x="419" y="761" fill="none" stroke="#FF3600" stroke-width="2" width="49" height="120"/>
			<rect id="Rectangle_18_" x="370" y="761" fill="none" stroke="#FF3600" stroke-width="2" width="49" height="120"/>
			<rect id="Rectangle_19_" x="622" y="449" fill="none" stroke="#FF3600" stroke-width="2" width="62" height="151"/>
			<rect id="Rectangle_20_" x="49" y="675" fill="none" stroke="#FF3600" stroke-width="2" width="151" height="62"/>
		</g>
		<g id="Tools" transform="translate(695.000000, 91.000000)">
			<path id="Rectangle_21_" fill="none" stroke="#FF3600" stroke-width="2" d="M289,776h-23v39h23V776z"/>
			<path id="Rectangle_22_" fill="none" stroke="#FF3600" stroke-width="2" d="M394,749h-23v39h23V749z"/>
			<path id="Rectangle_23_" fill="none" stroke="#FF3600" stroke-width="2" d="M767,540h-23v39h23V540z"/>
			<rect id="Rectangle_24_" x="100" y="1" fill="none" stroke="#FF3600" stroke-width="2" width="39" height="23"/>
			<path id="Rectangle_25_" fill="none" stroke="#FF3600" stroke-width="2" d="M1,811v23h82v-23H1z"/>
			<rect id="Rectangle_26_" x="2" y="123" fill="none" stroke="#FF3600" stroke-width="2" width="40" height="23"/>
			<rect id="Rectangle_27_" x="2" y="76" fill="none" stroke="#FF3600" stroke-width="2" width="40" height="23"/>
			<rect id="Rectangle_28_" x="159" y="1" fill="none" stroke="#FF3600" stroke-width="2" width="40" height="23"/>
			<path id="Rectangle_29_" fill="none" stroke="#FF3600" stroke-width="2" d="M227,60h-23v39h23V60z"/>
			<path id="Rectangle_30_" fill="none" stroke="#FF3600" stroke-width="2" d="M227,119h-23v39h23V119z"/>
			<path id="Rectangle_31_" fill="none" stroke="#FF3600" stroke-width="2" d="M83,60H60v39h23V60z"/>
			<path id="Rectangle_32_" fill="none" stroke="#FF3600" stroke-width="2" d="M83,123H60v39h23V123z"/>
			<rect id="Rectangle_33_" x="108" y="817" fill="none" stroke="#FF3600" stroke-width="2" width="82" height="27"/>
			<rect id="Rectangle_34_" x="55" y="491" fill="none" stroke="#FF3600" stroke-width="2" width="28" height="98"/>
			<rect id="Rectangle_35_" x="354" y="581" fill="none" stroke="#FF3600" stroke-width="2" width="51" height="18"/>
			<path id="Rectangle_36_" fill="none" stroke="#FF3600" stroke-width="2" d="M394,811h-23v39h23V811z"/>
			<path id="Rectangle_37_" fill="none" stroke="#FF3600" stroke-width="2" d="M443,749h-23v39h23V749z"/>
			<path id="Rectangle_38_" fill="none" stroke="#FF3600" stroke-width="2" d="M399,430h-23v39h23V430z"/>
			<path id="Rectangle_39_" fill="none" stroke="#FF3600" stroke-width="2" d="M443,811h-23v39h23V811z"/>
			<path id="Rectangle_40_" fill="none" stroke="#FF3600" stroke-width="2" d="M535,846v23h39v-23H535z"/>
			<path id="Rectangle_41_" fill="none" stroke="#FF3600" stroke-width="2" d="M595,854v23h39v-23H595z"/>
			<path id="Rectangle_42_" fill="none" stroke="#FF3600" stroke-width="2" d="M653,860v23h39v-23H653z"/>
			<path id="Rectangle_43_" fill="none" stroke="#FF3600" stroke-width="2" d="M566,693v18h18v-18H566z"/>
			<path id="Rectangle_44_" fill="none" stroke="#FF3600" stroke-width="2" d="M566,481v18h18v-18H566z"/>
			<path id="Rectangle_45_" fill="none" stroke="#FF3600" stroke-width="2" d="M646,749v18h18v-18H646z"/>
			<path id="Rectangle_46_" fill="none" stroke="#FF3600" stroke-width="2" d="M626,481v18h18v-18H626z"/>
		</g>
	</g>
</g>
</svg>
